<?xml version="1.0" standalone="no"?>
<!DOCTYPE svg PUBLIC "-//W3C//DTD SVG 20010904//EN"
 "http://www.w3.org/TR/2001/REC-SVG-20010904/DTD/svg10.dtd">
<svg version="1.0" xmlns="http://www.w3.org/2000/svg"
 width="1024.000000pt" height="1024.000000pt" viewBox="0 0 1024.000000 1024.000000"
 preserveAspectRatio="xMidYMid meet">

<g transform="translate(0.000000,1024.000000) scale(0.100000,-0.100000)"
fill="#000000" stroke="none">
<path d="M6695 9592 c-70 -24 -138 -66 -171 -104 -15 -18 -43 -67 -63 -108
l-36 -75 -6 -265 c-4 -146 -12 -412 -19 -591 -10 -252 -11 -340 -2 -385 35
-173 156 -290 325 -315 34 -5 196 -9 360 -9 l297 0 0 -303 c0 -338 -6 -379
-62 -443 -66 -75 -175 -104 -388 -103 -146 0 -164 6 -276 91 -144 110 -223
158 -257 158 -36 0 -97 -57 -97 -91 0 -37 36 -87 85 -118 27 -17 40 -31 32
-34 -7 -2 -92 -2 -190 1 l-177 5 0 271 c0 288 -9 366 -50 445 -50 100 -146
163 -273 182 -34 5 -201 9 -371 9 -277 0 -308 2 -302 16 3 9 6 130 6 270 l0
254 23 0 c13 0 51 14 85 31 74 37 154 121 193 202 l27 58 222 0 c122 0 224 -1
226 -3 2 -3 -21 -26 -51 -52 -51 -43 -55 -50 -55 -90 0 -62 34 -110 82 -114
46 -4 84 15 162 82 34 28 112 89 173 136 62 46 116 92 119 103 15 49 -33 106
-191 226 -55 41 -124 94 -153 118 -79 64 -149 59 -172 -12 -16 -50 -6 -83 45
-139 24 -27 42 -53 39 -58 -3 -4 -105 -8 -228 -8 l-222 0 -11 43 c-28 104
-135 217 -246 259 -156 60 -366 14 -472 -103 -32 -35 -79 -122 -98 -180 -8
-24 -90 -31 -321 -27 l-197 3 65 60 c96 89 110 133 57 186 -44 44 -83 40 -167
-18 -155 -105 -313 -224 -338 -254 -49 -58 -28 -102 83 -179 94 -64 182 -132
254 -194 50 -43 65 -51 99 -51 34 0 45 6 68 34 55 65 47 116 -27 187 l-55 52
237 -3 237 -3 23 -57 c43 -105 134 -191 236 -224 l54 -18 5 -259 c3 -142 4
-262 2 -266 -2 -5 -130 -8 -285 -8 -312 0 -388 -8 -474 -45 -122 -54 -176
-113 -213 -233 -18 -57 -20 -93 -20 -347 0 -249 -2 -284 -16 -289 -9 -3 -95
-6 -192 -6 l-176 0 67 63 c58 54 67 67 67 97 0 59 -53 110 -114 110 -35 0
-414 -302 -423 -338 -11 -46 10 -74 133 -171 67 -53 152 -122 190 -154 52 -44
75 -57 100 -57 42 0 81 33 98 84 19 55 4 90 -55 133 -27 19 -49 38 -49 41 0 4
83 8 185 10 l185 3 0 -259 c0 -143 5 -283 10 -312 31 -162 138 -274 295 -308
29 -7 183 -13 367 -14 l318 -3 0 -197 c0 -175 -2 -198 -16 -198 -41 0 -144
-62 -197 -120 -50 -54 -97 -143 -97 -184 0 -8 -19 -15 -52 -20 -65 -7 -388 -6
-482 3 l-70 6 57 42 c96 73 127 130 102 189 -29 70 -89 72 -172 7 -60 -48
-155 -115 -287 -205 l-70 -48 -225 1 c-125 0 -314 4 -421 7 l-195 7 -67 48
c-78 56 -113 95 -142 157 -19 41 -21 68 -24 320 -2 151 -1 352 3 446 l7 172
147 4 c125 3 153 7 196 26 119 54 174 157 130 242 -20 39 -94 62 -110 34 -26
-46 -90 -104 -133 -121 -43 -16 -83 -18 -442 -17 -455 2 -448 1 -541 89 -61
59 -68 61 -118 44 -54 -19 -54 -88 -1 -172 63 -100 143 -123 451 -133 l207 -7
6 -45 c3 -25 6 -216 6 -426 0 -210 5 -412 10 -450 20 -137 133 -291 234 -318
52 -14 58 -23 21 -32 -39 -10 -104 -74 -132 -130 -50 -98 -53 -124 -53 -522 0
-426 -5 -404 93 -411 96 -7 91 -29 100 405 4 207 12 394 17 414 13 47 144 170
192 180 17 3 200 8 407 9 l376 3 100 -68 c55 -38 135 -95 177 -128 43 -32 89
-63 103 -68 65 -25 155 52 140 121 -4 18 -29 53 -61 85 -30 29 -54 56 -54 59
0 3 129 4 286 1 l287 -3 12 -37 c36 -104 142 -211 240 -242 l53 -17 4 -173 c2
-95 7 -176 11 -181 14 -14 142 -9 160 6 15 12 17 37 17 182 0 154 2 169 18
169 36 0 141 60 185 106 47 49 107 149 107 178 0 14 31 15 281 13 l281 -2 -34
-25 c-18 -14 -51 -41 -72 -61 -40 -36 -40 -37 -28 -77 16 -53 71 -102 116
-102 29 0 55 17 158 103 67 57 158 129 200 160 127 93 122 129 -33 232 -58 39
-151 108 -207 153 -109 87 -135 97 -191 68 -51 -27 -62 -94 -23 -141 9 -12 43
-40 75 -63 31 -24 57 -47 57 -52 0 -18 -45 -21 -304 -18 l-259 3 -12 46 c-14
58 -64 137 -117 184 -37 34 -149 95 -174 95 -11 0 -24 170 -24 321 l0 78 343
3 342 3 65 31 c91 43 150 100 196 186 39 73 39 73 40 193 0 66 2 197 2 290 l2
170 168 3 c92 2 183 5 202 8 35 6 34 5 -16 -24 -52 -31 -114 -94 -114 -115 1
-33 41 -97 71 -112 50 -26 101 -6 211 82 51 41 121 95 156 120 l63 45 212 7
c211 7 213 8 292 41 106 44 185 122 241 235 l39 79 1 341 1 340 316 1 315 2
75 36 c85 40 169 122 208 203 l24 48 3 624 c2 550 1 631 -14 680 -31 110 -98
189 -199 238 l-69 33 -746 0 c-680 -1 -749 -2 -795 -18z m1385 -592 c20 -20
21 -30 18 -314 -3 -273 -4 -295 -22 -315 -26 -29 -60 -26 -85 5 -21 26 -21 33
-15 313 7 309 11 331 59 331 14 0 34 -9 45 -20z m-408 0 c85 -24 146 -121 133
-213 -15 -118 -85 -177 -227 -192 -47 -4 -68 -11 -73 -22 -3 -9 -5 -52 -4 -95
1 -70 -1 -82 -21 -103 -36 -38 -81 -32 -105 15 -11 21 -14 86 -15 298 -1 346
-12 322 154 322 66 0 138 -5 158 -10z m-637 -22 c24 -22 38 -56 152 -358 19
-52 44 -112 54 -132 22 -43 23 -66 6 -89 -13 -17 -50 -39 -66 -39 -21 0 -52
46 -67 97 l-15 53 -105 0 -105 0 -10 -29 c-19 -54 -46 -96 -72 -111 -24 -13
-28 -13 -54 6 -15 12 -29 31 -31 43 -4 22 29 111 126 351 61 150 85 191 122
214 33 20 34 20 65 -6z m-1946 -62 c57 -40 86 -98 85 -173 -1 -130 -86 -218
-210 -218 -53 0 -69 4 -106 30 -117 83 -130 269 -25 349 49 37 81 46 155 42
47 -3 72 -10 101 -30z m486 -1817 c19 -19 20 -33 20 -310 l0 -291 -24 -19
c-32 -26 -67 -24 -82 3 -9 16 -12 104 -10 318 2 254 5 297 18 313 19 20 48 15
78 -14z m-1061 -12 c9 -12 43 -97 76 -187 33 -91 74 -196 91 -235 53 -120 55
-132 32 -163 -14 -18 -29 -27 -49 -27 -26 0 -33 8 -63 66 l-34 65 -108 0 -107
0 -22 -53 c-25 -60 -60 -86 -98 -72 -43 16 -47 48 -17 141 55 166 170 435 202
471 24 25 79 22 97 -6z m699 -10 c50 -38 71 -81 71 -147 1 -73 -8 -103 -46
-145 -45 -51 -78 -65 -174 -72 l-84 -6 0 -99 c0 -92 -2 -101 -25 -123 -29 -30
-58 -32 -85 -5 -19 19 -20 33 -20 303 0 243 2 286 16 305 16 23 19 23 163 20
144 -3 149 -4 184 -31z m-146 -1874 c21 -11 52 -40 69 -65 40 -59 49 -117 29
-185 -39 -130 -160 -186 -280 -129 -85 40 -125 103 -125 195 0 61 13 97 48
134 70 74 173 94 259 50z"/>
<path d="M7517 8893 l-38 -4 3 -89 3 -88 48 -6 c28 -4 63 -2 83 4 57 19 80 89
49 149 -20 39 -43 45 -148 34z"/>
<path d="M6970 8748 c-13 -29 -26 -64 -30 -78 -5 -14 -11 -33 -15 -42 -6 -16
0 -18 64 -18 48 0 71 4 71 12 0 21 -54 178 -61 178 -4 0 -17 -24 -29 -52z"/>
<path d="M4442 6874 c-28 -57 -54 -142 -47 -154 3 -5 37 -10 75 -10 l69 0 -30
88 c-44 123 -43 122 -67 76z"/>
<path d="M5008 6993 c-28 -4 -28 -4 -28 -89 l0 -84 43 1 c89 1 136 35 137 100
0 57 -64 87 -152 72z"/>
<path d="M1775 9449 c-36 -10 -83 -52 -96 -86 -15 -39 -11 -298 5 -336 19 -45
64 -85 122 -106 27 -11 47 -23 45 -27 -2 -5 -21 -14 -43 -21 -50 -14 -104 -56
-124 -94 -12 -25 -15 -60 -12 -189 l3 -159 30 -32 c17 -17 51 -41 76 -53 l46
-22 -50 -24 c-27 -14 -62 -40 -78 -58 l-29 -33 0 -162 c0 -149 2 -165 23 -201
28 -49 102 -101 157 -110 69 -11 1191 4 1225 16 45 17 93 55 121 98 25 37 25
41 22 199 l-3 160 -34 35 c-19 19 -59 45 -89 57 l-55 23 38 13 c49 17 102 57
126 97 18 28 19 47 17 188 -3 151 -4 157 -28 184 -29 31 -114 74 -147 74 -38
0 -26 18 25 34 60 20 120 69 138 112 17 40 19 260 4 315 -12 42 -51 82 -102
103 -33 14 -119 16 -670 15 -348 0 -646 -5 -663 -10z m693 -149 l572 0 0 -115
0 -115 -27 -7 c-37 -11 -1077 -10 -1125 0 l-38 8 0 121 c0 120 0 120 23 114
12 -3 280 -6 595 -6z m560 -592 c8 -8 12 -47 12 -109 0 -96 0 -97 -27 -107
-32 -12 -1003 -26 -1101 -16 l-62 7 0 112 c0 61 3 115 7 118 3 4 266 7 583 7
435 0 579 -3 588 -12z m-1 -570 c10 -8 13 -36 11 -112 l-3 -101 -592 -3 -593
-2 0 115 0 114 103 3 c264 8 1061 -3 1074 -14z"/>
<path d="M2041 9224 c-29 -37 -26 -51 14 -64 46 -15 65 -7 65 27 0 35 -9 48
-36 57 -17 5 -27 0 -43 -20z"/>
<path d="M2059 8079 c-14 -14 -18 -27 -14 -42 8 -24 32 -47 51 -47 21 0 44 30
44 59 0 51 -43 68 -81 30z"/>
<path d="M1754 7523 c-66 -19 -142 -77 -168 -128 -16 -31 -22 -63 -24 -141 -6
-155 21 -218 112 -267 41 -22 41 -22 608 -21 401 1 581 5 616 14 55 13 123 64
147 111 11 20 15 62 15 147 0 113 -1 120 -29 164 -30 47 -72 83 -130 113 -30
15 -87 17 -565 20 -452 3 -539 1 -582 -12z m706 -164 c296 -9 378 -15 390 -26
11 -10 16 -40 18 -107 l4 -93 -549 -1 c-301 -1 -556 1 -565 4 -27 8 -26 173 0
197 46 42 110 44 702 26z"/>
<path d="M1881 7314 c-43 -54 -12 -134 52 -134 55 0 79 96 34 138 -31 29 -61
28 -86 -4z"/>
<path d="M2149 7311 c-38 -38 -39 -82 -3 -110 15 -12 34 -21 44 -21 10 0 29 9
44 21 38 30 36 79 -5 113 -39 33 -44 32 -80 -3z"/>
<path d="M1883 6803 c-26 -25 -30 -70 -9 -99 14 -18 32 -19 410 -22 l396 -3
25 25 c31 31 32 66 2 94 -22 21 -30 21 -412 24 l-390 3 -22 -22z"/>
<path d="M1912 6545 c-15 -33 -15 -68 0 -83 8 -8 57 -12 156 -12 l143 0 17 40
c17 40 18 40 57 34 41 -7 100 -39 124 -68 16 -20 93 -22 150 -4 30 9 42 20 52
45 7 18 20 33 28 34 9 0 5 5 -9 11 -30 13 -212 15 -296 4 -49 -7 -68 -5 -94 8
-26 12 -64 16 -175 16 l-142 0 -11 -25z"/>
<path d="M7351 5971 c-63 -11 -71 -27 -71 -147 0 -101 -1 -103 -28 -122 l-27
-20 -73 59 c-40 32 -81 59 -91 59 -26 0 -122 -73 -225 -171 l-89 -85 12 -34
c6 -19 34 -61 61 -93 79 -93 70 -111 -64 -121 -105 -9 -120 -15 -135 -57 -13
-39 -15 -348 -2 -382 13 -33 34 -39 147 -40 l94 0 0 -29 c0 -20 -15 -45 -54
-87 -65 -71 -79 -95 -71 -122 8 -25 240 -261 274 -279 45 -23 91 -4 157 66
l61 65 29 -17 c29 -17 29 -18 29 -105 0 -83 2 -90 27 -116 25 -25 36 -28 130
-34 153 -10 252 -5 282 15 41 26 58 69 55 143 l-2 66 35 18 35 18 64 -65 c54
-55 68 -64 99 -64 52 0 118 46 186 130 109 135 123 155 124 177 0 12 -23 49
-52 84 -73 85 -72 83 -65 112 7 25 9 25 107 29 148 5 144 -1 141 229 -2 181
-9 221 -40 235 -9 4 -56 10 -106 13 -86 6 -90 7 -99 32 -8 23 -4 33 31 75 46
55 73 104 73 131 0 18 -93 115 -213 221 -83 74 -108 71 -208 -25 -38 -37 -51
-44 -70 -38 -46 14 -49 23 -49 129 0 109 -3 116 -39 135 -28 15 -313 24 -380
12z m263 -266 c-6 -85 -4 -105 7 -109 8 -2 39 -12 69 -21 30 -9 83 -30 117
-47 l62 -30 40 32 c23 17 53 47 68 65 l28 34 62 -60 62 -59 -63 -66 -62 -65
32 -65 c20 -39 36 -88 40 -125 5 -48 10 -59 23 -55 9 3 50 6 91 7 l75 2 3 -84
3 -84 -94 3 -93 4 -13 -59 c-8 -32 -26 -84 -42 -115 -16 -32 -29 -63 -29 -71
0 -7 29 -42 65 -77 60 -60 79 -90 56 -90 -6 0 -29 -25 -52 -54 l-43 -55 -15
31 c-17 35 -117 138 -134 138 -5 0 -24 -11 -41 -24 -50 -37 -97 -59 -156 -71
l-55 -12 -3 -91 -3 -92 -84 0 -85 0 0 89 c0 93 -4 101 -50 101 -34 0 -114 32
-159 62 l-43 30 -59 -58 c-33 -32 -61 -65 -64 -74 -4 -12 -21 0 -70 44 l-65
60 67 68 67 68 -31 62 c-17 35 -37 86 -44 113 -6 28 -19 56 -27 63 -10 7 -46
12 -94 12 l-78 0 0 81 0 80 90 -3 c97 -3 99 -2 100 62 1 24 26 81 65 146 l19
31 -63 72 -64 71 52 51 52 51 55 -60 c64 -71 87 -82 117 -54 48 43 106 72 167
85 l65 13 -3 105 -4 104 86 -3 87 -3 -7 -104z"/>
<path d="M7419 5461 c-181 -58 -305 -199 -317 -360 -8 -117 25 -214 111 -321
92 -116 262 -166 422 -125 118 31 216 119 283 254 35 72 37 80 37 175 0 92 -3
106 -29 155 -97 186 -318 282 -507 222z m204 -165 c132 -48 201 -212 139 -332
-58 -113 -183 -172 -294 -140 -117 34 -176 110 -186 238 -8 111 36 179 144
223 66 28 139 31 197 11z"/>
<path d="M4881 4136 c-12 -13 -24 -38 -27 -57 -5 -29 -1 -39 28 -66 44 -42 83
-50 125 -24 47 30 68 66 57 99 -23 66 -138 96 -183 48z"/>
<path d="M5229 4101 c-48 -48 -50 -77 -6 -118 48 -47 94 -48 138 -4 21 22 29
39 29 66 0 27 -8 44 -29 66 -43 42 -83 40 -132 -10z"/>
<path d="M5594 4121 c-83 -50 -56 -181 36 -181 40 0 71 25 89 73 13 35 -6 86
-40 111 -30 21 -47 20 -85 -3z"/>
<path d="M6195 4131 c-33 -14 -56 -47 -62 -90 -5 -35 -2 -44 25 -71 25 -25 39
-30 76 -30 39 0 51 5 86 38 22 22 40 48 40 58 0 30 -27 62 -70 84 -42 21 -63
24 -95 11z"/>
<path d="M5877 4100 c-40 -35 -49 -66 -31 -108 25 -62 89 -69 140 -18 51 51
45 113 -13 144 -35 19 -60 14 -96 -18z"/>
<path d="M4898 3801 l-33 -29 3 -249 4 -248 -54 -19 c-130 -45 -234 -162 -254
-283 -6 -40 -7 -41 -58 -47 -66 -8 -292 -6 -331 3 l-30 7 35 33 c52 50 70 82
70 127 0 72 -73 113 -141 78 -61 -31 -309 -224 -360 -280 -55 -60 -46 -115 24
-154 47 -26 200 -143 290 -220 48 -41 65 -50 97 -50 30 0 43 6 64 31 55 65 47
111 -34 194 l-59 60 218 0 218 0 16 -45 c20 -53 78 -132 128 -172 20 -16 62
-40 95 -53 l59 -24 8 -173 c9 -205 12 -211 106 -206 78 4 81 13 81 221 l0 167
23 0 c78 0 226 122 273 225 l25 55 237 0 237 -1 -30 -25 c-16 -14 -44 -39 -62
-54 -18 -15 -35 -39 -39 -54 -10 -40 16 -97 55 -119 47 -28 94 -11 184 66 39
35 88 74 107 87 19 13 56 41 81 62 43 36 49 38 115 38 38 0 75 -4 83 -9 11 -7
13 -50 7 -247 -9 -330 2 -491 36 -567 37 -78 115 -158 187 -191 86 -38 165
-46 502 -46 l307 0 6 -25 c5 -20 12 -25 39 -25 59 1 118 17 132 36 13 18 32
19 332 19 l318 0 75 36 c88 41 153 108 200 204 l30 60 -3 740 -2 740 -26 56
c-31 65 -87 131 -140 165 -87 54 -81 54 -899 50 -732 -4 -757 -5 -821 -25
-120 -38 -200 -118 -240 -241 -19 -57 -22 -95 -27 -312 l-4 -248 -95 0 c-108
0 -104 -2 -234 110 -98 84 -196 150 -224 150 -13 0 -33 -9 -46 -19 -20 -16
-24 -29 -24 -70 0 -46 4 -54 45 -96 37 -38 42 -47 30 -55 -8 -5 -106 -10 -216
-10 l-201 0 -7 38 c-9 55 -48 131 -92 179 -44 49 -140 108 -198 124 l-39 10 5
232 c6 259 3 273 -56 301 -48 23 -71 20 -108 -13z m168 -740 c50 -23 101 -83
115 -136 15 -54 -3 -139 -40 -190 -120 -165 -380 -74 -381 133 0 29 6 67 14
85 15 37 75 93 120 113 44 19 124 17 172 -5z m3001 -15 l28 -24 0 -289 c0
-158 -3 -300 -7 -314 -4 -14 -20 -31 -34 -38 -24 -11 -30 -9 -55 15 l-29 28 0
298 0 299 25 24 c30 31 37 31 72 1z m-368 -11 c76 -39 110 -142 81 -246 -13
-46 -85 -114 -136 -128 -22 -6 -69 -11 -106 -11 l-68 0 0 -99 c0 -84 -3 -102
-21 -125 -25 -32 -59 -33 -88 -2 -22 23 -22 25 -19 308 2 220 6 289 16 301 24
29 287 30 341 2z m-700 1 c13 -15 101 -223 101 -238 0 -6 29 -79 65 -163 36
-83 65 -158 65 -165 0 -22 -42 -60 -65 -60 -28 0 -49 23 -75 83 l-21 47 -118
0 -118 0 -18 -47 c-32 -86 -70 -110 -111 -72 -39 37 -28 103 46 269 16 36 52
121 80 190 29 69 61 135 73 148 23 25 78 30 96 8z"/>
<path d="M7498 2943 c-28 -4 -28 -4 -28 -90 l0 -86 72 7 c98 9 118 23 118 85
0 35 -5 53 -20 66 -20 18 -90 27 -142 18z"/>
<path d="M6940 2824 c-6 -16 -22 -57 -36 -91 -13 -34 -24 -66 -24 -71 0 -11
48 -22 101 -22 48 0 48 6 13 115 -32 97 -40 107 -54 69z"/>
<path d="M1729 3731 c-81 -26 -139 -70 -179 -137 l-35 -58 -3 -500 c-2 -448
-1 -505 14 -554 13 -40 15 -59 7 -71 -21 -33 -122 -297 -153 -395 -16 -54 -30
-117 -30 -140 0 -74 73 -181 149 -218 46 -23 49 -23 386 -19 489 6 956 7 1300
2 l300 -5 62 28 c41 19 80 47 113 82 54 57 70 88 70 135 0 34 -122 356 -179
470 l-37 76 21 39 c19 38 20 54 20 549 0 509 0 510 -23 555 -34 69 -74 112
-133 145 l-54 30 -780 2 c-727 2 -784 1 -836 -16z m1598 -173 c34 -37 43 -64
43 -122 l0 -55 -587 -5 c-324 -3 -606 -6 -628 -7 -22 -1 -131 0 -243 2 -225 5
-222 4 -222 73 0 33 7 46 49 87 l48 49 760 0 760 0 20 -22z m43 -713 l0 -355
-834 0 -833 0 -6 68 c-4 37 -7 196 -7 355 l0 287 840 0 840 0 0 -355z m-601
-525 c587 5 594 5 602 -15 4 -11 24 -58 44 -105 20 -47 56 -134 80 -194 l44
-109 -35 -34 -36 -33 -300 2 -300 3 -24 80 c-13 44 -23 80 -24 81 0 1 108 1
241 0 228 -1 241 0 255 19 15 20 11 70 -10 115 l-11 25 -773 2 -772 1 -7 -26
c-4 -15 -7 -52 -8 -82 l0 -55 238 -3 237 -2 -6 -28 c-4 -15 -15 -49 -24 -77
l-17 -50 -114 -6 c-63 -4 -192 -7 -287 -8 l-172 -1 -37 33 c-35 33 -36 34 -23
73 11 35 148 382 155 394 2 3 113 3 247 0 133 -3 510 -3 837 0z m-39 -403 l0
-65 -51 -7 c-27 -4 -115 -4 -195 0 l-144 7 0 62 0 61 195 3 195 4 0 -65z"/>
<path d="M1868 3520 c-9 -6 -22 -27 -29 -47 -11 -35 -10 -38 15 -60 51 -44
116 -22 116 39 0 60 -54 96 -102 68z"/>
<path d="M2136 3508 c-25 -36 -20 -73 15 -102 17 -14 36 -26 44 -26 19 0 45
45 45 78 0 61 -73 95 -104 50z"/>
<path d="M2830 2988 c-28 -31 -33 -65 -13 -98 9 -17 26 -33 36 -36 11 -3 82
-3 158 1 134 7 140 8 160 33 25 33 21 70 -11 93 -20 14 -53 18 -168 22 -133 4
-145 3 -162 -15z"/>
<path d="M1869 2970 c-23 -22 -29 -35 -24 -52 13 -44 42 -58 120 -58 83 0 109
17 109 75 0 54 -16 65 -101 65 -69 0 -77 -2 -104 -30z"/>
<path d="M2204 2965 c-16 -40 -11 -76 17 -101 17 -15 38 -16 216 -10 223 8
237 13 237 80 0 65 -2 66 -241 66 l-214 0 -15 -35z"/>
<path d="M1883 2727 c-30 -24 -31 -76 -2 -103 18 -16 40 -20 136 -22 143 -5
156 -1 178 44 14 30 15 41 5 65 -16 37 -28 40 -174 37 -98 -3 -124 -6 -143
-21z"/>
<path d="M2351 2731 c-26 -26 -27 -71 -3 -101 17 -21 21 -22 237 -19 121 2
299 2 395 0 189 -3 188 -4 209 51 8 22 6 32 -11 53 l-21 27 -171 -1 c-94 -1
-271 1 -393 4 -215 6 -222 6 -242 -14z"/>
<path d="M4893 1971 c-50 -31 -52 -59 -9 -98 40 -37 83 -43 140 -19 41 17 50
30 42 61 -15 58 -117 91 -173 56z"/>
<path d="M4901 1758 c-56 -30 -52 -85 8 -125 47 -32 70 -29 119 13 46 39 51
60 25 93 -22 27 -115 39 -152 19z"/>
<path d="M4494 1456 c-17 -8 -40 -27 -51 -42 -60 -87 -17 -175 102 -209 56
-17 74 -37 53 -62 -14 -17 -64 -13 -115 8 -28 12 -34 11 -52 -6 -30 -26 -26
-50 13 -80 42 -32 125 -43 179 -26 54 18 97 75 97 128 0 35 -6 48 -35 77 -32
32 -86 56 -128 56 -23 0 -33 26 -17 45 14 17 66 20 75 5 10 -17 51 -11 69 9
28 30 17 71 -24 92 -41 22 -121 24 -166 5z"/>
<path d="M5347 1458 c-53 -14 -123 -85 -137 -139 -27 -97 26 -236 104 -276 80
-42 221 -1 252 73 21 50 18 120 -6 144 -22 22 -97 28 -131 10 -30 -17 -25 -66
8 -82 33 -16 34 -29 1 -47 -52 -30 -105 10 -115 88 -7 53 12 98 50 117 27 15
33 14 68 -2 46 -20 82 -10 101 31 14 31 -1 51 -57 76 -44 20 -80 22 -138 7z"/>
<path d="M4783 1453 c-7 -2 -13 -12 -13 -22 0 -18 99 -291 129 -356 18 -39 19
-40 64 -37 l45 4 47 104 c54 123 92 231 97 276 3 31 1 33 -32 36 -19 2 -43 -3
-52 -10 -17 -13 -88 -186 -88 -213 0 -8 -4 -16 -9 -19 -5 -4 -24 38 -42 91
-47 145 -52 153 -97 152 -20 0 -43 -3 -49 -6z"/>
<path d="M2484 1312 c-25 -20 -44 -53 -44 -77 0 -30 65 -85 99 -85 37 0 87 43
97 82 5 23 0 34 -29 63 -40 40 -87 47 -123 17z"/>
<path d="M6511 1317 c-19 -7 -43 -24 -54 -39 -18 -24 -18 -30 -7 -58 25 -61
107 -78 159 -34 38 31 41 72 9 108 -29 31 -63 39 -107 23z"/>
<path d="M7414 1320 c-31 -12 -54 -49 -54 -86 0 -24 8 -39 31 -58 60 -51 133
-22 146 57 5 31 1 40 -25 67 -31 30 -59 36 -98 20z"/>
<path d="M1557 1302 c-28 -17 -41 -46 -35 -78 5 -30 66 -64 112 -64 47 0 58 6
75 37 18 34 13 59 -18 92 -34 36 -88 42 -134 13z"/>
<path d="M1894 1305 c-52 -35 -51 -107 1 -141 63 -41 174 29 143 91 -22 44
-51 65 -88 65 -19 0 -45 -7 -56 -15z"/>
<path d="M2194 1302 c-51 -41 -56 -90 -13 -126 43 -36 91 -35 130 3 37 38 39
82 4 116 -29 30 -89 33 -121 7z"/>
<path d="M2769 1291 c-33 -33 -37 -66 -11 -97 43 -54 120 -56 147 -4 27 52 18
93 -26 115 -43 23 -77 18 -110 -14z"/>
<path d="M3077 1309 c-11 -6 -26 -27 -34 -47 -13 -32 -13 -37 5 -61 57 -78
166 -55 166 36 0 64 -80 105 -137 72z"/>
<path d="M3383 1310 c-22 -9 -53 -57 -53 -84 0 -8 14 -26 32 -41 28 -23 39
-27 80 -23 103 10 133 99 48 143 -32 17 -73 18 -107 5z"/>
<path d="M6792 1304 c-46 -32 -48 -97 -4 -130 28 -22 88 -17 116 9 36 33 40
58 13 98 -18 28 -30 35 -62 37 -25 2 -49 -3 -63 -14z"/>
<path d="M7089 1305 c-21 -11 -49 -58 -49 -81 0 -2 14 -19 31 -39 22 -25 39
-35 61 -35 90 0 132 90 67 144 -34 29 -71 32 -110 11z"/>
<path d="M7675 1295 c-25 -24 -32 -65 -19 -100 8 -19 55 -45 84 -45 33 0 80
53 80 90 0 70 -95 106 -145 55z"/>
<path d="M7967 1309 c-9 -5 -24 -24 -33 -41 -41 -78 72 -156 140 -95 40 34 43
77 11 115 -21 25 -34 32 -63 32 -21 0 -45 -5 -55 -11z"/>
<path d="M8255 1295 c-34 -33 -33 -74 3 -108 23 -22 37 -27 79 -27 45 0 54 4
77 31 14 17 26 37 26 45 0 73 -131 114 -185 59z"/>
</g>
</svg>
